<?xml version="1.0" encoding="UTF-8" standalone="no"?>
<!-- Created with Inkscape (http://www.inkscape.org/) -->

<svg
   width="255.99998"
   height="255.99998"
   viewBox="0 0 67.73333 67.73333"
   version="1.1"
   id="svg1"
   xml:space="preserve"
   inkscape:version="1.4 (86a8ad7, 2024-10-11)"
   sodipodi:docname="icon256.svg"
   xmlns:inkscape="http://www.inkscape.org/namespaces/inkscape"
   xmlns:sodipodi="http://sodipodi.sourceforge.net/DTD/sodipodi-0.dtd"
   xmlns="http://www.w3.org/2000/svg"
   xmlns:svg="http://www.w3.org/2000/svg"><sodipodi:namedview
     id="namedview1"
     pagecolor="#ffffff"
     bordercolor="#000000"
     borderopacity="0.51764706"
     inkscape:showpageshadow="2"
     inkscape:pageopacity="0.0"
     inkscape:pagecheckerboard="true"
     inkscape:deskcolor="#d1d1d1"
     inkscape:document-units="px"
     showgrid="true"
     inkscape:zoom="2.0792508"
     inkscape:cx="-58.915451"
     inkscape:cy="86.810113"
     inkscape:window-width="3440"
     inkscape:window-height="1369"
     inkscape:window-x="-8"
     inkscape:window-y="-8"
     inkscape:window-maximized="1"
     inkscape:current-layer="layer1-5"><inkscape:grid
       id="grid2"
       units="mm"
       originx="-234.23335"
       originy="0"
       spacingx="0.99999998"
       spacingy="1"
       empcolor="#0099e5"
       empopacity="0.30196078"
       color="#0099e5"
       opacity="0.14901961"
       empspacing="5"
       enabled="true"
       visible="true" /><inkscape:page
       x="0"
       y="0"
       width="67.73333"
       height="67.73333"
       id="page3"
       margin="0"
       bleed="0" /></sodipodi:namedview><defs
     id="defs1" /><g
     inkscape:label="Layer 1"
     inkscape:groupmode="layer"
     id="layer1"
     transform="translate(-234.23334)" /><!-- Back Window (Cyan) - Shifted pixel perfect --><!-- Middle Window (Mid Blue) --><!-- Using a mask or simple fill to hide the line behind it isn't strictly necessary at 16px if overlapping, 
       but opacity helps clarity. --><!-- Front Window (Dark Blue -> Adjusted for Visibility) --><!-- I lightened the dark blue slightly (#3A55B4 instead of deep navy) so it appears on black backgrounds --><g
     inkscape:label="Layer 1"
     inkscape:groupmode="layer"
     id="layer1-5"
     transform="translate(-29.459686,-82.313287)"><rect
       style="fill:#ffffff;stroke:#ffffff;stroke-width:4.23333"
       id="rect1445"
       width="63.500004"
       height="63.500004"
       x="31.576351"
       y="84.429955"
       rx="5.1287966"
       ry="5.1287966" /><g
       id="g1445"
       transform="translate(-4.4537275,2.9267352)"><path
         id="rect80"
         style="fill:#ffffff;stroke:#25aae1;stroke-width:2.11667"
         d="m 58.020083,92.300713 35.685293,-4.071979 c 2.823034,-0.322131 5.128797,2.287443 5.128797,5.128796 v 24.00329 c 0,2.84135 -2.287444,5.12879 -5.128797,5.12879 H 58.020083 c -2.841353,0 -5.128797,-2.28744 -5.128797,-5.12879 V 97.429509 c 0,-2.841353 2.305763,-4.806665 5.128797,-5.128796 z"
         sodipodi:nodetypes="sssssssss" /><path
         id="path1445"
         style="fill:#ffffff;stroke:#ffffff;stroke-width:2.11666"
         d="m 49.479271,101.74198 31.231576,-3.690314 c 2.821724,-0.333407 5.128797,2.287534 5.128797,5.128884 v 20.94931 c 0,2.84135 -2.287444,5.1288 -5.128797,5.1288 H 49.479271 c -2.841353,0 -5.128796,-2.28745 -5.128796,-5.1288 v -17.25908 c 0,-2.84135 2.307072,-4.79539 5.128796,-5.1288 z"
         sodipodi:nodetypes="sssssssss" /><path
         id="rect79"
         style="fill:#ffffff;stroke:#0f75bc;stroke-width:2.11666"
         d="m 49.026645,102.88562 30.859041,-3.690241 c 2.788066,-0.333407 5.06762,2.287461 5.06762,5.128811 v 20.94931 c 0,2.84135 -2.260159,5.1288 -5.06762,5.1288 H 49.026645 c -2.807461,0 -5.067619,-2.28745 -5.067619,-5.1288 v -17.25908 c 0,-2.84135 2.279553,-4.79539 5.067619,-5.1288 z"
         sodipodi:nodetypes="sssssssss" /><path
         id="path1444"
         style="fill:none;fill-opacity:1;stroke:#ffffff;stroke-width:2.11667"
         d="m 43.121896,110.90846 27.541333,-3.94473 c 2.81265,-0.40286 5.206809,2.28851 5.128796,5.1288 l -0.508997,18.53156 c -0.07801,2.84028 -2.287443,5.12879 -5.128796,5.12879 H 43.121896 c -2.841353,0 -5.128796,-2.28744 -5.128796,-5.12879 v -14.58683 c 0,-2.84136 2.316147,-4.72595 5.128796,-5.1288 z"
         sodipodi:nodetypes="sssssssss" /><path
         id="rect78"
         style="fill:#ffffff;fill-opacity:1;stroke:#283891;stroke-width:2.11667"
         d="m 42.028629,112.47889 27.541333,-3.94473 c 2.81265,-0.40286 5.206809,2.28851 5.128796,5.1288 l -0.508997,18.53156 c -0.07801,2.84028 -2.287443,5.12879 -5.128796,5.12879 H 42.028629 c -2.841353,0 -5.128796,-2.28744 -5.128796,-5.12879 v -14.58683 c 0,-2.84136 2.316147,-4.72595 5.128796,-5.1288 z"
         sodipodi:nodetypes="sssssssss" /></g></g></svg>
